<svg xmlns="http://www.w3.org/2000/svg" viewBox="0 0 368.14 336.06"><defs><style>.a{fill:#0d4687;}</style></defs><title>crew-logo</title><path class="a" d="M151.18,322.08q2.2-4,4.62-7.94l12.7,7.94h1.89l-14.06-8.78q2.76-4.37,5.78-8.54l21.58,15.68.59-.81L162.7,304q3-4.15,6.35-8.12L189.48,313l.64-.77-20.43-17.14q3.33-3.93,6.89-7.66l19.18,18.52.7-.72L177.3,286.7c2.39-2.46,4.86-4.86,7.41-7.17l17.85,19.82.74-.67-17.84-19.82q3.84-3.44,7.89-6.64l16.43,21,.79-.61-16.42-21q4.07-3.17,8.33-6.07l14.93,22.13.83-.56L203.31,265q4.27-2.88,8.74-5.47l13.35,23.13.86-.5L212.88,259q4.45-2.56,9.1-4.85l11.71,24,.9-.44-11.72-24c3.08-1.5,6.23-2.9,9.42-4.2l10,24.79.93-.38-10-24.8q4.77-1.92,9.69-3.53L251.18,271l.95-.31-8.27-25.44q4.89-1.58,9.91-2.85l6.47,26,1-.24-6.47-26c3.32-.82,6.68-1.55,10.09-2.15l4.65,26.36,1-.17-4.65-26.35q5.06-.87,10.21-1.43l2.8,26.6,1-.1L277,238.33q5.1-.51,10.29-.7l.93,26.72,1,0-.93-26.72c1.71-.05,3.43-.09,5.16-.09s3.44,0,5.15.09l-.93,26.72,1,0,.93-26.72q5.19.19,10.29.7l-2.8,26.61,1,.1,2.8-26.6q5.16.56,10.21,1.43l-4.65,26.35,1,.17L322.09,240c3.4.61,6.76,1.34,10.08,2.15l-6.47,26,1,.24,6.47-26q5,1.28,9.91,2.85l-8.27,25.44,1,.31L344,245.58q4.92,1.62,9.69,3.53l-10,24.8.93.38,10-24.79q4.78,2,9.42,4.2l-11.72,24,.9.44,11.71-24q4.63,2.28,9.1,4.85l-13.36,23.14.87.5,13.35-23.13c3,1.73,5.89,3.56,8.73,5.47L368.7,287.11l.83.56,14.93-22.13q4.26,2.91,8.33,6.07l-16.42,21,.79.61,16.43-21q4.05,3.19,7.88,6.64l-17.84,19.82.74.67,17.85-19.82c2.55,2.31,5,4.7,7.41,7.17l-19.18,18.52.7.72,19.18-18.52q3.57,3.72,6.89,7.66l-20.43,17.14.64.77,20.43-17.14q3.3,4,6.35,8.12l-21.58,15.68.59.81,21.58-15.68q3,4.17,5.78,8.54l-14.05,8.78h1.89l12.7-7.94c1.62,2.6,3.15,5.25,4.62,7.94h6.82a168,168,0,0,0-298.16,0h6.78Z" transform="translate(-107.25 -231.54)"/><path class="a" d="M430.4,486.1c-1.79,2.81-3.65,5.58-5.6,8.27l-11.38-8.27h-1.7l12.49,9.08q-3,4.15-6.35,8.12l-20.43-17.14-.64.77,20.43,17.14q-3.33,3.93-6.9,7.66l-19.18-18.52-.7.72,19.18,18.52c-2.39,2.46-4.86,4.86-7.4,7.17L384.37,499.8l-.74.67,17.84,19.81c-2.56,2.29-5.18,4.51-7.89,6.64l-16.43-21-.79.62,16.42,21q-4.06,3.16-8.33,6.07l-14.92-22.13-.83.56,14.93,22.13q-4.28,2.87-8.74,5.47l-13.35-23.13-.87.5L374,540.15q-4.45,2.57-9.1,4.85l-11.71-24-.9.44,11.72,24c-3.08,1.5-6.23,2.9-9.42,4.2l-10-24.79-.93.38,10,24.77q-4.77,1.92-9.69,3.54l-8.27-25.44-1,.31,8.27,25.44c-3.26,1-6.56,2-9.91,2.85l-6.47-26-1,.24,6.47,26q-5,1.23-10.08,2.15l-4.65-26.36-1,.17,4.64,26.35q-5.06.87-10.21,1.43l-2.8-26.6-1,.11,2.8,26.61q-5.1.51-10.29.7l-.93-26.72-1,0,.93,26.72c-1.71.05-3.43.09-5.15.09s-3.45,0-5.16-.09l.93-26.72-1,0-.93,26.72q-5.19-.19-10.29-.7l2.8-26.61-1-.11-2.8,26.6q-5.16-.55-10.21-1.43l4.65-26.35-1-.17-4.65,26.36q-5.1-.92-10.09-2.15l6.47-26-1-.24-6.47,26q-5-1.28-9.91-2.85l8.27-25.44-.95-.31-8.27,25.44q-4.92-1.62-9.69-3.53l10-24.79-.93-.38-10,24.79c-3.19-1.31-6.33-2.7-9.42-4.2l11.72-24-.9-.44L222,545q-4.64-2.28-9.1-4.85L226.24,517l-.86-.5L212,539.63q-4.46-2.6-8.74-5.47L218.22,512l-.83-.56L202.46,533.6q-4.26-2.9-8.33-6.07l16.42-21-.79-.62-16.43,21q-4.05-3.2-7.88-6.64l17.84-19.81-.74-.67L184.7,519.6c-2.55-2.31-5-4.7-7.41-7.17l19.18-18.52-.7-.72-19.18,18.52q-3.57-3.72-6.9-7.66l20.43-17.14-.64-.77-20.43,17.14q-3.3-3.94-6.35-8.12l12.49-9.08h-1.7l-11.38,8.27q-2.93-4.05-5.6-8.27h-7.06a168,168,0,0,0,288,0H430.4Z" transform="translate(-107.25 -231.54)"/><path class="a" d="M139.93,448.14a18.1,18.1,0,0,1,4.31-.5,8.08,8.08,0,0,1,5.69,1.79,5.8,5.8,0,0,1,1.68,4.39,5.94,5.94,0,0,1-4,5.72v.08a6.33,6.33,0,0,1,4.77,6.56,7.38,7.38,0,0,1-1.83,5.11c-1.45,1.64-3.85,2.33-6.79,2.33a21.07,21.07,0,0,1-3.85-.26V448.14Zm2.94,10.54h1.33a4.42,4.42,0,0,0,4.47-4.54c0-2.36-1.11-4.2-4.24-4.2a5,5,0,0,0-1.56.19Zm0,12.47a6.62,6.62,0,0,0,1.49.15c3,0,5-1.79,5-5.11a5,5,0,0,0-5.23-5.27h-1.3Z" transform="translate(-107.25 -231.54)"/><path class="a" d="M161.22,448.14a16.94,16.94,0,0,1,4.24-.5c2.56,0,4.47.53,5.8,1.83a6.92,6.92,0,0,1,1.79,5,6.71,6.71,0,0,1-4.12,6.6v.08c1.91.57,2.9,2.4,3.47,5.76a36.69,36.69,0,0,0,1.45,6.53h-3a33.07,33.07,0,0,1-1.37-6.37c-.57-3.51-1.68-4.85-4.2-4.85h-1.14v11.22h-2.94V448.14ZM164.16,460h1.22c2.82,0,4.69-2.06,4.69-5.15s-1.22-4.81-4.39-4.85a6,6,0,0,0-1.52.15Z" transform="translate(-107.25 -231.54)"/><polygon class="a" points="84.38 229.73 77.93 229.73 77.93 239.39 85.26 239.39 85.26 241.94 74.99 241.94 74.99 216.22 84.8 216.22 84.8 218.78 77.93 218.78 77.93 227.25 84.38 227.25 84.38 229.73"/><path class="a" d="M204.94,473.48l-5-25.72H203l2.18,12.4c.53,3.24.95,6.11,1.26,9.27h.15c.3-3.24.92-6,1.53-9.31l2.37-12.37H213l2.37,12.1c.57,3,1.15,6,1.49,9.58h.1c.42-3.7.88-6.49,1.37-9.43l2.14-12.25h2.86l-5,25.72h-2.86L213,461c-.5-2.71-1-5.61-1.3-8.43h-.08c-.38,2.9-.8,5.69-1.41,8.55l-2.56,12.4h-2.74Z" transform="translate(-107.25 -231.54)"/><rect class="a" x="124.63" y="216.22" width="2.94" height="25.72"/><path class="a" d="M244.89,473.48V447.76h2.78l4.73,12.06c1.07,2.75,2.4,6.18,3.28,9h.08c-.23-4-.35-7.37-.35-11.83v-9.2h2.64v25.72h-2.79l-4.89-12.36a90.77,90.77,0,0,1-3.05-8.74h-.08c.23,3.43.31,6.72.31,12.21v8.89Z" transform="translate(-107.25 -231.54)"/><path class="a" d="M280.72,472.83a13.18,13.18,0,0,1-4.58.88,7.68,7.68,0,0,1-6.07-2.52c-1.87-2-3.13-5.53-3.09-10.23,0-10,5.15-13.43,9.69-13.43a8.24,8.24,0,0,1,3.66.72l-.65,2.52a6.49,6.49,0,0,0-3-.61c-3.21,0-6.68,2.56-6.68,10.53s3,10.49,6.11,10.49a4.31,4.31,0,0,0,1.79-.3v-8.4H274.6V460h6.11v12.79Z" transform="translate(-107.25 -231.54)"/><path class="a" d="M312.73,473a8.18,8.18,0,0,1-3.66.69c-5,0-8.62-4-8.62-12.79,0-10.15,5-13.39,9.08-13.39a6.37,6.37,0,0,1,3.21.65l-.65,2.48a5.59,5.59,0,0,0-2.59-.53c-2.75,0-5.95,2.67-5.95,10.53s2.9,10.46,6,10.46a6.44,6.44,0,0,0,2.71-.57Z" transform="translate(-107.25 -231.54)"/><path class="a" d="M334,460.43c0,9.65-3.32,13.36-7.44,13.36s-7.13-4.54-7.13-13.2c0-8.51,3.05-13.13,7.55-13.13s7,4.77,7,13m-11.52.19c0,5.3,1,10.57,4.27,10.57s4.2-5.61,4.2-10.65c0-4.81-.88-10.5-4.24-10.5-3.2,0-4.23,5.35-4.23,10.58" transform="translate(-107.25 -231.54)"/><path class="a" d="M358.52,462.42c-.19-3.4-.38-7.17-.27-10.07h-.15c-.57,2.86-1.26,5.92-2.06,8.93l-3.16,12.06H351l-3-11.56c-.84-3.28-1.6-6.45-2.1-9.43h-.11c0,3-.15,6.6-.3,10.26l-.5,10.88h-2.63l1.53-25.72h3.17l3,11.75c.88,3.4,1.53,5.92,2.06,8.85h.11c.5-2.94,1.07-5.38,1.91-8.85l2.9-11.75h3.28l1.49,25.72h-2.75Z" transform="translate(-107.25 -231.54)"/><path class="a" d="M371.22,448.14a17.26,17.26,0,0,1,4.27-.5,7.76,7.76,0,0,1,5.68,1.91,7.21,7.21,0,0,1,1.91,5.3,8.14,8.14,0,0,1-1.57,5.27,7.53,7.53,0,0,1-6.07,2.86c-.5,0-.88,0-1.3,0v10.53H371.2V448.14Zm2.94,12.33a4.66,4.66,0,0,0,1.15.11c2.9,0,4.85-1.91,4.85-5.53,0-2.63-1.11-5-4.35-5a6.18,6.18,0,0,0-1.64.19v10.23Z" transform="translate(-107.25 -231.54)"/><path class="a" d="M392.78,465.77l-1.72,7.71h-2.82l5.88-25.72h3.24l5.73,25.72h-2.9l-1.72-7.71Zm5.3-2.36-1.34-6.52c-.38-1.83-.72-4-1-5.88h-.15c-.31,1.95-.69,4.16-1,5.88l-1.34,6.52Z" transform="translate(-107.25 -231.54)"/><path class="a" d="M411.71,473.48V447.76h2.78l4.73,12.06c1.07,2.75,2.4,6.18,3.28,9h.08c-.23-4-.34-7.37-.34-11.83v-9.2h2.63v25.72h-2.79l-4.89-12.36a90.77,90.77,0,0,1-3.05-8.74h-.08c.23,3.43.31,6.72.31,12.21v8.89Z" transform="translate(-107.25 -231.54)"/><path class="a" d="M438.61,473.48V462.6L433,447.75h3.09l2.29,6.45c.65,1.79,1.34,3.82,1.91,5.8h.07c.54-2,1.18-3.93,1.87-5.92l2.17-6.33h3.09l-5.92,14.73v11h-2.92Z" transform="translate(-107.25 -231.54)"/><polygon class="a" points="217.1 119.38 217.61 119.38 220.02 110.06 219.51 110.06 217.1 119.38"/><polygon class="a" points="214.68 119.38 215.2 119.38 217.61 110.06 217.09 110.06 214.68 119.38"/><polygon class="a" points="212.03 119.38 212.54 119.38 214.95 110.06 214.44 110.06 212.03 119.38"/><polygon class="a" points="224.52 119.38 225.04 119.38 227.45 110.06 226.93 110.06 224.52 119.38"/><polygon class="a" points="222.16 119.38 222.67 119.38 225.08 110.06 224.57 110.06 222.16 119.38"/><path class="a" d="M247.05,390.29,243,406c.08.34.17.67.24,1h0l4.24-16.37C247.33,390.55,247.19,390.42,247.05,390.29Z" transform="translate(-107.25 -231.54)"/><polygon class="a" points="206.94 119.38 207.46 119.38 209.87 110.06 209.35 110.06 206.94 119.38"/><polygon class="a" points="200.02 119.38 200.53 119.38 202.94 110.06 202.43 110.06 200.02 119.38"/><polygon class="a" points="202.41 119.38 202.93 119.38 205.34 110.06 204.82 110.06 202.41 119.38"/><polygon class="a" points="226.94 119.38 227.46 119.38 229.87 110.06 229.35 110.06 226.94 119.38"/><polygon class="a" points="204.63 119.38 205.15 119.38 207.56 110.06 207.04 110.06 204.63 119.38"/><polygon class="a" points="209.39 119.38 209.91 119.38 212.32 110.06 211.8 110.06 209.39 119.38"/><polygon class="a" points="213.27 146.55 212.76 146.55 210.38 155.74 210.9 155.74 213.27 146.55"/><polygon class="a" points="205.51 146.55 205 146.55 202.62 155.74 203.14 155.74 205.51 146.55"/><polygon class="a" points="208.17 146.55 207.65 146.55 205.27 155.74 205.79 155.74 208.17 146.55"/><polygon class="a" points="202.88 146.55 202.36 146.55 199.99 155.74 200.5 155.74 202.88 146.55"/><polygon class="a" points="210.58 146.55 210.07 146.55 207.69 155.74 208.21 155.74 210.58 146.55"/><polygon class="a" points="195.22 155.74 195.74 155.74 198.12 146.55 197.6 146.55 195.22 155.74"/><polygon class="a" points="200.42 146.55 199.91 146.55 197.53 155.74 198.05 155.74 200.42 146.55"/><polygon class="a" points="220.42 146.55 219.91 146.55 217.53 155.74 218.05 155.74 220.42 146.55"/><polygon class="a" points="197.6 119.38 198.11 119.38 200.52 110.06 200.01 110.06 197.6 119.38"/><polygon class="a" points="222.82 146.55 222.3 146.55 219.93 155.74 220.44 155.74 222.82 146.55"/><polygon class="a" points="229.33 119.38 229.85 119.38 230.38 117.33 230.38 115.33 229.33 119.38"/><polygon class="a" points="215.64 146.55 215.13 146.55 212.75 155.74 213.26 155.74 215.64 146.55"/><polygon class="a" points="218.01 146.55 217.49 146.55 215.11 155.74 215.63 155.74 218.01 146.55"/><polygon class="a" points="221.84 186.74 221.32 186.74 218.91 196.05 219.43 196.05 221.84 186.74"/><polygon class="a" points="216.75 186.74 216.23 186.74 213.82 196.05 214.34 196.05 216.75 186.74"/><polygon class="a" points="219.2 186.74 218.69 186.74 216.28 196.05 216.79 196.05 219.2 186.74"/><polygon class="a" points="222.15 155.74 222.66 155.74 225.04 146.55 224.52 146.55 222.15 155.74"/><polygon class="a" points="214.64 186.74 214.12 186.74 211.71 196.05 212.23 196.05 214.64 186.74"/><polygon class="a" points="212.42 186.74 211.9 186.74 209.49 196.05 210.01 196.05 212.42 186.74"/><polygon class="a" points="207.61 186.74 207.09 186.74 204.68 196.05 205.2 196.05 207.61 186.74"/><polygon class="a" points="210.03 186.74 209.51 186.74 207.1 196.05 207.62 196.05 210.03 186.74"/><polygon class="a" points="231.97 186.74 231.45 186.74 229.04 196.05 229.56 196.05 231.97 186.74"/><polygon class="a" points="232.29 194.62 232.29 192.62 231.4 196.05 231.92 196.05 232.29 194.62"/><polygon class="a" points="229.6 186.74 229.08 186.74 226.67 196.05 227.19 196.05 229.6 186.74"/><polygon class="a" points="224.49 186.74 223.98 186.74 221.57 196.05 222.08 196.05 224.49 186.74"/><polygon class="a" points="226.91 186.74 226.39 186.74 223.98 196.05 224.5 196.05 226.91 186.74"/><polygon class="a" points="195.11 186.74 195.04 186.74 195.04 185.03 192.19 196.05 192.7 196.05 195.11 186.74"/><polygon class="a" points="195.04 140.6 195.04 138.6 183.94 181.5 183.94 183.49 195.04 140.6"/><polygon class="a" points="195.9 146.55 195.38 146.55 183.94 190.76 183.94 192.75 195.9 146.55"/><polygon class="a" points="195.04 167.36 195.04 165.36 187.1 196.05 187.62 196.05 195.04 167.36"/><polygon class="a" points="195.04 158.44 195.04 156.44 184.79 196.05 185.31 196.05 195.04 158.44"/><polygon class="a" points="195.04 131.25 195.04 129.26 183.94 172.15 183.94 174.15 195.04 131.25"/><polygon class="a" points="195.04 122.12 195.04 120.12 183.94 163.02 183.94 165.01 195.04 122.12"/><polygon class="a" points="197.77 186.74 197.25 186.74 194.84 196.05 195.36 196.05 197.77 186.74"/><polygon class="a" points="195.04 176.85 195.04 174.85 189.55 196.05 190.07 196.05 195.04 176.85"/><polygon class="a" points="200.18 186.74 199.67 186.74 197.26 196.05 197.77 196.05 200.18 186.74"/><polygon class="a" points="202.87 186.74 202.36 186.74 199.95 196.05 200.46 196.05 202.87 186.74"/><polygon class="a" points="205.24 186.74 204.73 186.74 202.32 196.05 202.83 196.05 205.24 186.74"/><polygon class="a" points="195.23 119.38 195.75 119.38 198.16 110.06 197.64 110.06 195.23 119.38"/><polygon class="a" points="219.79 119.38 220.3 119.38 222.71 110.06 222.2 110.06 219.79 119.38"/><polygon class="a" points="277.39 141.85 277.14 140.8 271.51 162.56 271.77 163.57 277.39 141.85"/><path class="a" d="M388.26,388.84c-.08-.35-.16-.7-.25-1L382.53,409l.26,1Z" transform="translate(-107.25 -231.54)"/><path class="a" d="M390.72,399.78l-.24-1.08-5.33,20.6.26,1Z" transform="translate(-107.25 -231.54)"/><path class="a" d="M391.81,404.91c-.08-.36-.15-.74-.23-1.1L386.35,424l.26,1Z" transform="translate(-107.25 -231.54)"/><polygon class="a" points="279.84 152.32 279.6 151.28 274.07 172.64 274.33 173.65 279.84 152.32"/><polygon class="a" points="278.44 146.35 278.2 145.3 272.61 166.89 272.87 167.9 278.44 146.35"/><path class="a" d="M389.5,394.25l-.24-1.07-5.42,20.94.26,1Z" transform="translate(-107.25 -231.54)"/><polygon class="a" points="313.18 110.06 312.66 110.06 290.41 196.05 290.93 196.05 313.18 110.06"/><polygon class="a" points="310.78 110.06 310.26 110.06 288.01 196.05 288.53 196.05 310.78 110.06"/><polygon class="a" points="308.36 110.06 307.85 110.06 285.59 196.05 286.11 196.05 308.36 110.06"/><path class="a" d="M393,410.75c-.07-.37-.15-.75-.22-1.13l-4.65,18h.52Z" transform="translate(-107.25 -231.54)"/><path class="a" d="M413.25,341.6h-.52l-18.19,70.29c-.19,1-.37,2-.52,2.94h-.24l-3.3,12.76H391Z" transform="translate(-107.25 -231.54)"/><polygon class="a" points="224.25 155.74 224.77 155.74 227.15 146.55 226.63 146.55 224.25 155.74"/><polygon class="a" points="263.21 110.06 262.7 110.06 260.42 118.85 260.68 119.86 263.21 110.06"/><polygon class="a" points="261.21 110.06 260.69 110.06 259.43 114.94 259.68 115.94 261.21 110.06"/><polygon class="a" points="268.3 110.06 267.79 110.06 262.94 128.79 263.2 129.79 268.3 110.06"/><polygon class="a" points="265.67 110.06 265.15 110.06 261.64 123.65 261.89 124.65 265.67 110.06"/><polygon class="a" points="258.99 110.06 258.47 110.06 258.33 110.6 258.59 111.61 258.99 110.06"/><path class="a" d="M429,361.86,423.6,382.7l0,.11.22.92,5.39-20.84Z" transform="translate(-107.25 -231.54)"/><polygon class="a" points="273.97 127.3 273.73 126.25 267.96 148.55 268.21 149.56 273.97 127.3"/><polygon class="a" points="270.42 112.15 270.17 111.1 264.26 133.96 264.51 134.97 270.42 112.15"/><polygon class="a" points="276.25 136.99 276 135.94 270.33 157.88 270.58 158.89 276.25 136.99"/><polygon class="a" points="275.1 132.09 274.85 131.04 269.13 153.16 269.38 154.17 275.1 132.09"/><path class="a" d="M422.65,341.6h-.52l-3.87,15c.06.42.12.85.19,1.27Z" transform="translate(-107.25 -231.54)"/><polygon class="a" points="272.85 122.5 272.6 121.45 266.78 143.93 267.04 144.94 272.85 122.5"/><polygon class="a" points="271.57 117.05 271.32 116 265.45 138.68 265.71 139.69 271.57 117.05"/><path class="a" d="M436.8,427.59l3.62-14c-.06-.42-.13-.84-.19-1.26l-3.94,15.23Z" transform="translate(-107.25 -231.54)"/><polygon class="a" points="361.64 110.06 361.13 110.06 339.46 193.81 345.41 172.82 361.64 110.06"/><polygon class="a" points="356.91 110.06 356.39 110.06 334.14 196.05 334.66 196.05 356.91 110.06"/><path class="a" d="M447.73,385c-.86,3.45-1.69,6.76-2.49,10l11.13-43Z" transform="translate(-107.25 -231.54)"/><polygon class="a" points="185.4 110.06 184.88 110.06 183.94 113.69 183.94 115.69 185.4 110.06"/><polygon class="a" points="354.22 110.06 353.7 110.06 331.45 196.05 331.97 196.05 354.22 110.06"/><polygon class="a" points="359.28 110.06 358.76 110.06 336.51 196.05 337.03 196.05 359.28 110.06"/><polygon class="a" points="226.71 155.74 227.23 155.74 228.47 150.95 228.47 148.95 226.71 155.74"/><polygon class="a" points="195.79 110.06 195.27 110.06 183.94 153.86 183.94 155.85 195.79 110.06"/><polygon class="a" points="193.1 110.06 192.58 110.06 183.94 143.47 183.94 145.46 193.1 110.06"/><polygon class="a" points="188.03 110.06 187.51 110.06 183.94 123.87 183.94 125.87 188.03 110.06"/><polygon class="a" points="190.68 110.06 190.17 110.06 183.94 134.13 183.94 136.12 190.68 110.06"/><polygon class="a" points="324.42 141.5 324.17 140.47 318.79 161.26 319.04 162.29 324.42 141.5"/><polygon class="a" points="323.28 136.75 323.03 135.71 317.64 156.53 317.89 157.56 323.28 136.75"/><path class="a" d="M428.07,358.05l-.25-1-5.39,20.84c.08.35.16.69.25,1Z" transform="translate(-107.25 -231.54)"/><polygon class="a" points="325.55 146.25 325.31 145.21 319.93 165.98 320.18 167.01 325.55 146.25"/><path class="a" d="M439.39,407.36c-.07-.38-.15-.77-.22-1.15l-5.1,19.73.25,1Z" transform="translate(-107.25 -231.54)"/><path class="a" d="M426.8,352.73l-.25-1-5.36,20.71.24,1.08Z" transform="translate(-107.25 -231.54)"/><path class="a" d="M425.53,347.44l-.25-1L420,366.77c.07.38.15.75.22,1.13Z" transform="translate(-107.25 -231.54)"/><path class="a" d="M424.35,342.52l-.22-.91h-.06L419,361.24l.21,1.19Z" transform="translate(-107.25 -231.54)"/><path class="a" d="M438.25,401.56c-.08-.37-.15-.74-.23-1.12l-5.24,20.24.25,1Z" transform="translate(-107.25 -231.54)"/><path class="a" d="M437.15,396.35l-.24-1.07-5.3,20.5.25,1Z" transform="translate(-107.25 -231.54)"/><path class="a" d="M435.12,387.46c-.08-.35-.16-.7-.25-1l-5.36,20.71.25,1Z" transform="translate(-107.25 -231.54)"/><path class="a" d="M436.17,392l-.24-1.06-5.34,20.64.25,1Z" transform="translate(-107.25 -231.54)"/><polygon class="a" points="326.72 151.1 326.47 150.06 321.1 170.81 321.35 171.84 326.72 151.1"/><path class="a" d="M215.62,350.51l.55-.14,2.39-9.23-.52,0Z" transform="translate(-107.25 -231.54)"/><path class="a" d="M142.17,350.79l.55-.14,2.6-10-.53.06Z" transform="translate(-107.25 -231.54)"/><path class="a" d="M154.5,349.57H155l2.38-9.18-.51,0Z" transform="translate(-107.25 -231.54)"/><path class="a" d="M144.74,350.22l.54-.11,2.52-9.74-.53,0Z" transform="translate(-107.25 -231.54)"/><path class="a" d="M147.24,349.83l.53-.06,2.47-9.53h-.52Z" transform="translate(-107.25 -231.54)"/><path class="a" d="M137,352.64l.58-.26,2.82-10.9-.55.14Z" transform="translate(-107.25 -231.54)"/><path class="a" d="M152.06,349.52h.52l2.39-9.26-.51,0Z" transform="translate(-107.25 -231.54)"/><path class="a" d="M139.61,351.58l.57-.2,2.69-10.4-.54.1Z" transform="translate(-107.25 -231.54)"/><path class="a" d="M123.17,365.79c.31-.59.63-1.17,1-1.74l4.72-18.23-.6.33Z" transform="translate(-107.25 -231.54)"/><path class="a" d="M119,384c0-.8,0-1.58.09-2.36L112.24,408c.11.22.23.43.35.64Z" transform="translate(-107.25 -231.54)"/><path class="a" d="M130.9,356.33l.65-.5,3.29-12.71-.57.21Z" transform="translate(-107.25 -231.54)"/><path class="a" d="M127.39,359.63c.24-.26.47-.53.72-.78l3.76-14.54-.59.28Z" transform="translate(-107.25 -231.54)"/><path class="a" d="M133.85,354.28l.61-.37,3-11.67-.56.17Z" transform="translate(-107.25 -231.54)"/><path class="a" d="M157.09,349.74l.51,0,2.36-9.13-.5-.06Z" transform="translate(-107.25 -231.54)"/><path class="a" d="M120.22,352.16c-.23.22-.47.44-.69.67l-11.27,43.55c.07.38.14.76.22,1.13Z" transform="translate(-107.25 -231.54)"/><path class="a" d="M123.1,349.64l-.65.53-13.1,50.61c.09.31.18.62.28.92Z" transform="translate(-107.25 -231.54)"/><path class="a" d="M125.94,347.57l-.63.43-14.64,56.58c.1.26.21.51.32.76Z" transform="translate(-107.25 -231.54)"/><path class="a" d="M150,349.59l2.43-9.39H152l-2.44,9.42Z" transform="translate(-107.25 -231.54)"/><path class="a" d="M116.89,355.8c-.27.33-.52.68-.78,1l-8.68,33.55c0,.48.1,1,.15,1.43Z" transform="translate(-107.25 -231.54)"/><path class="a" d="M112.94,361.72c-.36.66-.71,1.33-1,2l-4.52,17.46c-.06.82-.1,1.65-.13,2.48Z" transform="translate(-107.25 -231.54)"/><path class="a" d="M166.69,351.78l.47.18,2.38-9.2-.48-.16Z" transform="translate(-107.25 -231.54)"/><path class="a" d="M162,350.47l.49.1,2.36-9.13-.49-.1Z" transform="translate(-107.25 -231.54)"/><path class="a" d="M159.66,350.06l.5.07,2.36-9.12-.5-.08Z" transform="translate(-107.25 -231.54)"/><path class="a" d="M168.84,352.63l.46.21,2.39-9.22-.46-.21Z" transform="translate(-107.25 -231.54)"/><path class="a" d="M119.48,392.22l-.18-1.31-5.24,20.27c.12.19.24.38.37.57Z" transform="translate(-107.25 -231.54)"/><path class="a" d="M164.5,351.09l.48.15,2.37-9.16-.48-.13Z" transform="translate(-107.25 -231.54)"/><path class="a" d="M127.4,409.9l-.4-.45-3.1,12,.44.29Z" transform="translate(-107.25 -231.54)"/><path class="a" d="M147.37,419.31l-.5-.05-2.42,9.35.5.05Z" transform="translate(-107.25 -231.54)"/><path class="a" d="M156.91,419.31l-.53.05L154,428.75l.52,0Z" transform="translate(-107.25 -231.54)"/><path class="a" d="M159.2,419l-.54.07-2.45,9.48.53,0Z" transform="translate(-107.25 -231.54)"/><path class="a" d="M161.45,418.67l-.54.1-2.48,9.6.53-.06Z" transform="translate(-107.25 -231.54)"/><path class="a" d="M149.69,419.49l-.51,0-2.41,9.32.51,0Z" transform="translate(-107.25 -231.54)"/><path class="a" d="M152,419.55h-.52l-2.41,9.31h.51Z" transform="translate(-107.25 -231.54)"/><path class="a" d="M151.53,428.84l.52,0,2.42-9.34-.52,0Z" transform="translate(-107.25 -231.54)"/><path class="a" d="M171.21,420.19l-.26-1-1.79,6.91.57-.19Z" transform="translate(-107.25 -231.54)"/><path class="a" d="M172.3,424.37l-.14.53.25-.12Z" transform="translate(-107.25 -231.54)"/><path class="a" d="M164.05,418.1l-.55.13L161,428l.54-.09Z" transform="translate(-107.25 -231.54)"/><path class="a" d="M166.89,417.28l-.57.19-2.61,10.07.55-.12Z" transform="translate(-107.25 -231.54)"/><path class="a" d="M169.85,416.1l-.59.27-2.72,10.5.56-.15Z" transform="translate(-107.25 -231.54)"/><path class="a" d="M137.59,416.93l-.47-.2-2.56,9.88.48.15Z" transform="translate(-107.25 -231.54)"/><path class="a" d="M125.6,407.72c-.13-.17-.25-.36-.38-.54l-3.29,12.73c.14.11.28.24.43.35Z" transform="translate(-107.25 -231.54)"/><path class="a" d="M260.21,427.12l-.12.47h.36C260.37,427.45,260.29,427.28,260.21,427.12Z" transform="translate(-107.25 -231.54)"/><path class="a" d="M144.77,419l-.49-.09-2.44,9.42.5.07Z" transform="translate(-107.25 -231.54)"/><path class="a" d="M131.3,413.42l-.43-.33-2.8,10.83.46.23Z" transform="translate(-107.25 -231.54)"/><path class="a" d="M122.11,401.64c-.11-.25-.22-.5-.32-.75l-3.94,15.22c.13.15.27.29.41.43Z" transform="translate(-107.25 -231.54)"/><path class="a" d="M123.89,405.16l-.35-.63L120,418.25l.42.38Z" transform="translate(-107.25 -231.54)"/><path class="a" d="M129.32,411.8l-.42-.38L126,422.75l.45.26Z" transform="translate(-107.25 -231.54)"/><path class="a" d="M142.47,418.49l-.49-.12-2.46,9.52.49.09Z" transform="translate(-107.25 -231.54)"/><path class="a" d="M133.19,414.7l-.44-.28L130,424.88l.46.21Z" transform="translate(-107.25 -231.54)"/><path class="a" d="M140,417.81l-.48-.15-2.5,9.67.49.12Z" transform="translate(-107.25 -231.54)"/><path class="a" d="M135.39,415.93l-.46-.23-2.62,10.12c.16.06.31.13.47.18Z" transform="translate(-107.25 -231.54)"/><path class="a" d="M120.7,397.76l-.27-1L116,413.91l.39.5Z" transform="translate(-107.25 -231.54)"/><path class="a" d="M230.26,381.72l-.53.06-2.24,8.66.51,0Z" transform="translate(-107.25 -231.54)"/><path class="a" d="M228.1,349.57l.51,0,2.19-8.47-.51,0Z" transform="translate(-107.25 -231.54)"/><path class="a" d="M230.28,349.74l.5.05,2.2-8.5-.5-.05Z" transform="translate(-107.25 -231.54)"/><path class="a" d="M225.72,349.52h.52l2.2-8.51-.51,0Z" transform="translate(-107.25 -231.54)"/><path class="a" d="M220.88,349.73l.53,0,2.25-8.7h-.52Z" transform="translate(-107.25 -231.54)"/><polygon class="a" points="110.3 158.8 110.82 158.8 113 150.38 112.48 150.38 110.3 158.8"/><polygon class="a" points="117.86 150.38 117.35 150.38 115.17 158.8 115.68 158.8 117.86 150.38"/><polygon class="a" points="108.29 140.85 108.29 138.86 97.19 181.75 97.19 183.74 108.29 140.85"/><polygon class="a" points="115.22 150.38 114.7 150.38 112.52 158.8 113.04 158.8 115.22 150.38"/><path class="a" d="M218.45,350l.53-.06,2.3-8.88-.52,0Z" transform="translate(-107.25 -231.54)"/><polygon class="a" points="108.29 149.99 108.29 147.99 97.19 190.88 97.19 192.88 108.29 149.99"/><polygon class="a" points="108.29 121.3 108.29 119.31 97.19 162.19 97.19 164.19 108.29 121.3"/><polygon class="a" points="108.29 131.7 108.29 129.7 97.19 172.59 97.19 174.59 108.29 131.7"/><path class="a" d="M216.11,341.3l-.53,0L204.44,384.4v2Z" transform="translate(-107.25 -231.54)"/><polygon class="a" points="108.29 159.33 108.29 158.8 108.42 158.8 110.6 150.38 110.09 150.38 98.27 196.05 98.78 196.05 108.29 159.33"/><path class="a" d="M223.81,349.56,226,341h-.52l-2.23,8.62Z" transform="translate(-107.25 -231.54)"/><path class="a" d="M232.82,350.12l.49.11,2.23-8.64-.5-.07Z" transform="translate(-107.25 -231.54)"/><path class="a" d="M208.15,342.12l-.54.08-3.18,12.28v2Z" transform="translate(-107.25 -231.54)"/><path class="a" d="M249,346.63l-3.47,13.42c.1.32.18.66.26,1L249.38,347Z" transform="translate(-107.25 -231.54)"/><path class="a" d="M210.69,341.79l-.53.06L204.44,364v2Z" transform="translate(-107.25 -231.54)"/><path class="a" d="M213.4,341.51l-.53.05-8.43,32.58v2Z" transform="translate(-107.25 -231.54)"/><path class="a" d="M243.94,356.81c.13.2.24.4.36.61l3.07-11.87-.45-.26Z" transform="translate(-107.25 -231.54)"/><path class="a" d="M235.13,350.7l.48.15L237.9,342l-.49-.1Z" transform="translate(-107.25 -231.54)"/><path class="a" d="M237.54,351.57l.47.2,2.37-9.18-.48-.12Z" transform="translate(-107.25 -231.54)"/><path class="a" d="M241.89,354.36l.41.41L245,344.28l-.46-.21Z" transform="translate(-107.25 -231.54)"/><path class="a" d="M239.87,352.82l.44.29,2.52-9.73-.47-.17Z" transform="translate(-107.25 -231.54)"/><path class="a" d="M256.58,415.5c-.08-.33-.17-.67-.25-1l-3.39,13.1h.52Z" transform="translate(-107.25 -231.54)"/><path class="a" d="M245.66,389.06c-.14-.11-.29-.21-.44-.31l-3.41,13.18c.1.29.2.56.29.86Z" transform="translate(-107.25 -231.54)"/><path class="a" d="M249.49,393.24l-.37-.55-4.87,18.82c.08.35.16.7.25,1.05Z" transform="translate(-107.25 -231.54)"/><path class="a" d="M243.61,387.72l-.46-.23-2.83,10.92c.12.22.23.45.34.68Z" transform="translate(-107.25 -231.54)"/><path class="a" d="M246.51,383.77l.62-.39,7.74-29.9c-.11-.22-.23-.43-.35-.65Z" transform="translate(-107.25 -231.54)"/><path class="a" d="M251.18,396.21l-.34-.68-5.41,20.9c.09.34.17.68.25,1Z" transform="translate(-107.25 -231.54)"/><path class="a" d="M243.74,385.23l.58-.26,8.85-34.2c-.13-.17-.25-.34-.39-.51Z" transform="translate(-107.25 -231.54)"/><path class="a" d="M252.77,400.23c-.1-.29-.19-.59-.29-.88l-5.72,22.11c.09.33.18.64.27.94Z" transform="translate(-107.25 -231.54)"/><path class="a" d="M250.25,427.59h.52l4.51-17.42c-.08-.34-.17-.69-.25-1Z" transform="translate(-107.25 -231.54)"/><path class="a" d="M249.23,381.86c.23-.18.44-.37.66-.56l6.34-24.52c-.09-.29-.19-.58-.29-.86Z" transform="translate(-107.25 -231.54)"/><path class="a" d="M257.78,420l-.27-1-2.21,8.53h.52Z" transform="translate(-107.25 -231.54)"/><path class="a" d="M254.12,405.29c-.08-.35-.16-.69-.25-1.05L248.24,426c.11.28.22.53.32.76Z" transform="translate(-107.25 -231.54)"/><path class="a" d="M259.06,424.22c-.1-.28-.19-.58-.29-.88l-1.1,4.25h.52Z" transform="translate(-107.25 -231.54)"/><path class="a" d="M252.89,378.1c.28-.36.55-.72.8-1.1l3.64-14.08c0-.51-.07-1-.13-1.51Z" transform="translate(-107.25 -231.54)"/><polygon class="a" points="108.29 194.89 107.99 196.05 108.29 196.05 108.29 194.89"/><path class="a" d="M227.05,381.91l-2.18,8.42h.52l2.18-8.44Z" transform="translate(-107.25 -231.54)"/><polygon class="a" points="108.29 168.59 108.29 166.6 100.66 196.05 101.18 196.05 108.29 168.59"/><polygon class="a" points="108.29 177.17 108.29 175.17 102.88 196.05 103.4 196.05 108.29 177.17"/><path class="a" d="M205.77,342.5l-.54.1-.79,3.06v2Z" transform="translate(-107.25 -231.54)"/><polygon class="a" points="108.29 187.4 108.29 185.4 105.53 196.05 106.05 196.05 108.29 187.4"/><path class="a" d="M241.45,386.74l-.27-.1v-.38l.44-.16,9.69-37.46-.42-.39-4.64,17.93a15.78,15.78,0,0,1-1.83,7.09l-5.81,22.46.38.51Z" transform="translate(-107.25 -231.54)"/><path class="a" d="M233,381.27l-.54.1-2.44,9.42.49.1Z" transform="translate(-107.25 -231.54)"/><path class="a" d="M241.64,376.87c-.22.21-.44.43-.68.63l-4.22,16.3.42.37Z" transform="translate(-107.25 -231.54)"/><path class="a" d="M238.7,379.06c-.2.12-.4.24-.61.35l-3.36,13c.15.08.31.15.45.24Z" transform="translate(-107.25 -231.54)"/><path class="a" d="M235.65,380.48l-.57.21-2.76,10.67.47.16Z" transform="translate(-107.25 -231.54)"/><path class="a" d="M177.35,419.46c-4.08,2-12.25,4.08-22.71,4.08-24.24,0-42.48-15.31-42.48-43.5,0-26.92,18.24-45.16,44.91-45.16,10.72,0,17.48,2.3,20.41,3.83l-2.68,9.06a40.46,40.46,0,0,0-17.35-3.57c-20.16,0-33.55,12.88-33.55,35.47,0,21.05,12.12,34.57,33,34.57,6.76,0,13.65-1.4,18.12-3.57Z" transform="translate(-107.25 -231.54)"/><path class="a" d="M209.37,337.43a115.49,115.49,0,0,1,21.31-1.79c11.86,0,19.52,2.17,24.88,7,4.34,3.83,6.76,9.7,6.76,16.33,0,11.35-7.15,18.88-16.2,21.94v.38c6.63,2.3,10.59,8.42,12.63,17.35,2.81,12,4.85,20.28,6.63,23.6H253.9c-1.4-2.42-3.32-9.82-5.74-20.54-2.55-11.86-7.14-16.33-17.22-16.71H220.48v37.25h-11.1V337.43Zm11.1,39.17h11.35c11.87,0,19.39-6.51,19.39-16.33,0-11.1-8-15.95-19.77-16.07a45.62,45.62,0,0,0-11,1Z" transform="translate(-107.25 -231.54)"/><polygon class="a" points="233.4 150.41 199.98 150.41 199.98 181.42 237.23 181.42 237.23 190.73 188.88 190.73 188.88 104.74 235.32 104.74 235.32 114.05 199.98 114.05 199.98 141.23 233.4 141.23 233.4 150.41"/><path class="a" d="M392.19,422.27l-21.81-86h11.74l10.21,43.51c2.55,10.71,4.85,21.43,6.38,29.73H399c1.4-8.55,4.08-18.75,7-29.85l11.48-43.38h11.61l10.46,43.63c2.42,10.21,4.72,20.41,6,29.47h.26c1.79-9.44,4.21-19,6.89-29.73L464,336.28h11.35l-24.37,86H439.4l-10.84-44.78A258.79,258.79,0,0,1,423,349.42h-.26a268.08,268.08,0,0,1-6.63,28.07l-12.25,44.78Z" transform="translate(-107.25 -231.54)"/></svg>